{
    "asset" : {
        "extensions" : {
            "ASOBO_normal_map_convention" : {
                "tangent_space_convention" : "DirectX"
            }
        },
        "generator" : "Extended Khronos glTF Blender I/O v1.0.0",
        "version" : "2.0"
    },
    "extensionsUsed" : [
        "ASOBO_normal_map_convention"
    ],
    "scene" : 0,
    "scenes" : [
        {
            "name" : "Scene",
            "nodes" : [
                3,
                4
            ]
        }
    ],
    "nodes" : [
        {
            "mesh" : 0,
            "name" : "Cube",
            "rotation" : [
                0.7071068286895752,
                0,
                0,
                0.7071067094802856
            ]
        },
        {
            "mesh" : 1,
            "name" : "Engines",
            "rotation" : [
                0.7071068286895752,
                0,
                0,
                0.7071067094802856
            ]
        },
        {
            "mesh" : 2,
            "name" : "Left landing gear door.001"
        },
        {
            "children" : [
                0,
                1,
                2
            ],
            "mesh" : 3,
            "name" : "Fuselage"
        },
        {
            "mesh" : 4,
            "name" : "Wing.001"
        }
    ],
    "materials" : [
        {
            "emissiveFactor" : [
                0,
                0,
                0
            ],
            "name" : "Material",
            "pbrMetallicRoughness" : {
                "baseColorFactor" : [
                    0.800000011920929,
                    0.800000011920929,
                    0.800000011920929,
                    1
                ],
                "metallicFactor" : 0,
                "roughnessFactor" : 0.5
            }
        },
        {
            "emissiveFactor" : [
                0,
                0,
                0
            ],
            "name" : "Fuselage",
            "pbrMetallicRoughness" : {
                "baseColorTexture" : {
                    "index" : 0,
                    "texCoord" : 0
                },
                "metallicFactor" : 0,
                "roughnessFactor" : 0.5
            }
        }
    ],
    "meshes" : [
        {
            "name" : "Cube",
            "primitives" : [
                {
                    "attributes" : {
                        "POSITION" : 0,
                        "NORMAL" : 1,
                        "TEXCOORD_0" : 2
                    },
                    "indices" : 3,
                    "material" : 0
                }
            ]
        },
        {
            "name" : "Engines",
            "primitives" : [
                {
                    "attributes" : {
                        "POSITION" : 4,
                        "NORMAL" : 5,
                        "TEXCOORD_0" : 6
                    },
                    "indices" : 7,
                    "material" : 0
                }
            ]
        },
        {
            "name" : "LG",
            "primitives" : [
                {
                    "attributes" : {
                        "POSITION" : 8,
                        "NORMAL" : 9,
                        "TEXCOORD_0" : 10
                    },
                    "indices" : 11,
                    "material" : 0
                }
            ]
        },
        {
            "name" : "Fuse",
            "primitives" : [
                {
                    "attributes" : {
                        "POSITION" : 12,
                        "NORMAL" : 13,
                        "TEXCOORD_0" : 14
                    },
                    "indices" : 15,
                    "material" : 1
                }
            ]
        },
        {
            "name" : "Wing.002",
            "primitives" : [
                {
                    "attributes" : {
                        "POSITION" : 16,
                        "NORMAL" : 17,
                        "TEXCOORD_0" : 18
                    },
                    "indices" : 19,
                    "material" : 0
                }
            ]
        }
    ],
    "textures" : [
        {
            "source" : 0
        }
    ],
    "images" : [
        {
            "mimeType" : "image/png",
            "name" : "fuse",
            "uri" : "fuse.png"
        }
    ],
    "accessors" : [
        {
            "bufferView" : 0,
            "componentType" : 5126,
            "count" : 48,
            "max" : [
                15.789758682250977,
                -31.96464729309082,
                -2.948134422302246
            ],
            "min" : [
                -15.789758682250977,
                -46.57521057128906,
                -4.974571228027344
            ],
            "type" : "VEC3"
        },
        {
            "bufferView" : 1,
            "componentType" : 5126,
            "count" : 48,
            "type" : "VEC3"
        },
        {
            "bufferView" : 2,
            "componentType" : 5126,
            "count" : 48,
            "type" : "VEC2"
        },
        {
            "bufferView" : 3,
            "componentType" : 5123,
            "count" : 72,
            "type" : "SCALAR"
        },
        {
            "bufferView" : 4,
            "componentType" : 5126,
            "count" : 71985,
            "max" : [
                27.566484451293945,
                3.956143379211426,
                3.058903694152832
            ],
            "min" : [
                -27.5369873046875,
                -20.62993621826172,
                -2.487830400466919
            ],
            "type" : "VEC3"
        },
        {
            "bufferView" : 5,
            "componentType" : 5126,
            "count" : 71985,
            "type" : "VEC3"
        },
        {
            "bufferView" : 6,
            "componentType" : 5126,
            "count" : 71985,
            "type" : "VEC2"
        },
        {
            "bufferView" : 7,
            "componentType" : 5125,
            "count" : 228312,
            "type" : "SCALAR"
        },
        {
            "bufferView" : 8,
            "componentType" : 5126,
            "count" : 426,
            "max" : [
                4.3204193115234375,
                -1.0460842847824097,
                -9.974528312683105
            ],
            "min" : [
                -4.32403564453125,
                -2.553532123565674,
                -14.199960708618164
            ],
            "type" : "VEC3"
        },
        {
            "bufferView" : 9,
            "componentType" : 5126,
            "count" : 426,
            "type" : "VEC3"
        },
        {
            "bufferView" : 10,
            "componentType" : 5126,
            "count" : 426,
            "type" : "VEC2"
        },
        {
            "bufferView" : 11,
            "componentType" : 5123,
            "count" : 1788,
            "type" : "SCALAR"
        },
        {
            "bufferView" : 12,
            "componentType" : 5126,
            "count" : 34463,
            "max" : [
                4.344765663146973,
                18.93736457824707,
                26.33855438232422
            ],
            "min" : [
                -4.347319602966309,
                -2.596835136413574,
                -46.200435638427734
            ],
            "type" : "VEC3"
        },
        {
            "bufferView" : 13,
            "componentType" : 5126,
            "count" : 34463,
            "type" : "VEC3"
        },
        {
            "bufferView" : 14,
            "componentType" : 5126,
            "count" : 34463,
            "type" : "VEC2"
        },
        {
            "bufferView" : 15,
            "componentType" : 5123,
            "count" : 203412,
            "type" : "SCALAR"
        },
        {
            "bufferView" : 16,
            "componentType" : 5126,
            "count" : 4806,
            "max" : [
                40.00368118286133,
                3.757204294204712,
                8.058172225952148
            ],
            "min" : [
                -40.003658294677734,
                -1.7584803104400635,
                -24.776962280273438
            ],
            "type" : "VEC3"
        },
        {
            "bufferView" : 17,
            "componentType" : 5126,
            "count" : 4806,
            "type" : "VEC3"
        },
        {
            "bufferView" : 18,
            "componentType" : 5126,
            "count" : 4806,
            "type" : "VEC2"
        },
        {
            "bufferView" : 19,
            "componentType" : 5123,
            "count" : 27156,
            "type" : "SCALAR"
        }
    ],
    "bufferViews" : [
        {
            "buffer" : 0,
            "byteLength" : 576,
            "byteOffset" : 0
        },
        {
            "buffer" : 0,
            "byteLength" : 576,
            "byteOffset" : 576
        },
        {
            "buffer" : 0,
            "byteLength" : 384,
            "byteOffset" : 1152
        },
        {
            "buffer" : 0,
            "byteLength" : 144,
            "byteOffset" : 1536
        },
        {
            "buffer" : 0,
            "byteLength" : 863820,
            "byteOffset" : 1680
        },
        {
            "buffer" : 0,
            "byteLength" : 863820,
            "byteOffset" : 865500
        },
        {
            "buffer" : 0,
            "byteLength" : 575880,
            "byteOffset" : 1729320
        },
        {
            "buffer" : 0,
            "byteLength" : 913248,
            "byteOffset" : 2305200
        },
        {
            "buffer" : 0,
            "byteLength" : 5112,
            "byteOffset" : 3218448
        },
        {
            "buffer" : 0,
            "byteLength" : 5112,
            "byteOffset" : 3223560
        },
        {
            "buffer" : 0,
            "byteLength" : 3408,
            "byteOffset" : 3228672
        },
        {
            "buffer" : 0,
            "byteLength" : 3576,
            "byteOffset" : 3232080
        },
        {
            "buffer" : 0,
            "byteLength" : 413556,
            "byteOffset" : 3235656
        },
        {
            "buffer" : 0,
            "byteLength" : 413556,
            "byteOffset" : 3649212
        },
        {
            "buffer" : 0,
            "byteLength" : 275704,
            "byteOffset" : 4062768
        },
        {
            "buffer" : 0,
            "byteLength" : 406824,
            "byteOffset" : 4338472
        },
        {
            "buffer" : 0,
            "byteLength" : 57672,
            "byteOffset" : 4745296
        },
        {
            "buffer" : 0,
            "byteLength" : 57672,
            "byteOffset" : 4802968
        },
        {
            "buffer" : 0,
            "byteLength" : 38448,
            "byteOffset" : 4860640
        },
        {
            "buffer" : 0,
            "byteLength" : 54312,
            "byteOffset" : 4899088
        }
    ],
    "buffers" : [
        {
            "byteLength" : 4953400,
            "uri" : "A380.bin"
        }
    ]
}
